<svg width="103" height="134" viewBox="0 0 103 134" fill="none" xmlns="http://www.w3.org/2000/svg">
<path fill-rule="evenodd" clip-rule="evenodd" d="M14.3073 89.6302V15.0052L0 23.276V97.875L14.3073 106.12L21.4323 110.266L26.0156 112.885L35.7396 118.51L40.2969 121.151L47.4479 125.271L61.7552 133.516L76.0573 125.271L87.7656 118.51L102.047 110.266V80.2969L101.974 80.276L102.047 80.224V63.7865L101.974 63.7656L87.7656 55.5417L76.0573 48.7812L61.7552 40.5365L54.599 36.3906L40.2969 44.6562V0L26.0156 8.24479V96.3958L14.3073 89.6302ZM61.7552 117.031L50.0417 110.266L61.7552 103.5L76.0573 95.2344V65.2917L87.6927 72.0052L87.7656 71.9583V101.995L76.0573 108.76L61.7552 117.031ZM61.7552 86.9896L40.2969 99.3542V44.6562L61.7552 57.0469V86.9896Z" fill="#FF5757"/>
</svg>
