<svg width="33" height="33" viewBox="0 0 33 33" fill="none" xmlns="http://www.w3.org/2000/svg">
<path fill-rule="evenodd" clip-rule="evenodd" d="M6.14303 0C5.01993 0 4.02718 0.730002 3.69239 1.80205L0.579641 11.7695C0.0633877 13.4226 1.29844 15.1021 3.03028 15.1021H16.5162C17.6393 15.1021 18.632 14.3721 18.9668 13.3001L22.0795 3.33268C22.5958 1.67957 21.3607 0 19.6289 0H6.14303ZM24.0642 7.55105C23.5026 7.55105 23.0062 7.91605 22.8389 8.45207L21.2825 13.4358C21.0243 14.2623 21.6419 15.1021 22.5078 15.1021H29.2507C29.8123 15.1021 30.3087 14.7371 30.4761 14.2011L32.0324 9.21739C32.2906 8.39084 31.673 7.55105 30.8071 7.55105H24.0642ZM1.61563 17.8906C1.78303 17.3546 2.2794 16.9896 2.84095 16.9896H9.58389C10.4498 16.9896 11.0673 17.8294 10.8092 18.6559L9.25283 23.6396C9.08543 24.1757 8.58906 24.5407 8.02751 24.5407H1.28458C0.418653 24.5407 -0.198872 23.7009 0.0592552 22.8743L1.61563 17.8906ZM15.5756 16.9896C14.4525 16.9896 13.4597 17.7196 13.1249 18.7916L10.0122 28.759C9.49593 30.4122 10.731 32.0917 12.4628 32.0917H25.9487C27.0718 32.0917 28.0645 31.3617 28.3993 30.2897L31.5121 20.3223C32.0283 18.6692 30.7933 16.9896 29.0614 16.9896H15.5756Z" fill="url(#paint0_linear_841_653)"/>
<defs>
<linearGradient id="paint0_linear_841_653" x1="-0.0224937" y1="-3.02041" x2="23.8216" y2="39.5324" gradientUnits="userSpaceOnUse">
<stop stop-color="#003087"/>
<stop offset="1" stop-color="#A259FF"/>
</linearGradient>
</defs>
</svg>
