<svg width="7" height="7" viewBox="0 0 7 7" fill="none" xmlns="http://www.w3.org/2000/svg">
<path d="M1.673 2.0335V3.4965C1.673 3.93983 1.785 4.35283 2.009 4.7355C2.22367 5.10417 2.51533 5.39583 2.884 5.6105C3.26667 5.8345 3.67733 5.9465 4.116 5.9465C4.55933 5.9465 4.97233 5.8345 5.355 5.6105C5.72367 5.39583 6.01533 5.10417 6.23 4.7355C6.454 4.35283 6.566 3.94217 6.566 3.5035C6.566 3.06017 6.454 2.64717 6.23 2.2645C6.01533 1.89583 5.72367 1.60417 5.355 1.3895C4.97233 1.1655 4.55933 1.0535 4.116 1.0535V0.619499C4.63867 0.619499 5.124 0.750166 5.572 1.0115C6.006 1.26817 6.35133 1.6135 6.608 2.0475C6.86933 2.49083 7 2.97383 7 3.4965C7 4.01917 6.86933 4.5045 6.608 4.9525C6.35133 5.3865 6.006 5.73183 5.572 5.9885C5.124 6.24983 4.63867 6.3805 4.116 6.3805C3.59333 6.3805 3.11033 6.24983 2.667 5.9885C2.233 5.73183 1.88767 5.3865 1.631 4.9525C1.36967 4.5045 1.239 4.01917 1.239 3.4965V2.0335L0.371 2.9015C0.329 2.9435 0.277667 2.9645 0.217 2.9645C0.156333 2.9645 0.105 2.9435 0.063 2.9015C0.021 2.85483 0 2.8035 0 2.7475C0 2.68683 0.021 2.6355 0.063 2.5935L1.456 1.2005L2.849 2.5935C2.891 2.6355 2.912 2.68683 2.912 2.7475C2.912 2.8035 2.891 2.85483 2.849 2.9015C2.807 2.9435 2.75567 2.9645 2.695 2.9645C2.639 2.9645 2.58533 2.9435 2.534 2.9015L1.673 2.0335Z" fill="white"/>
</svg>
