<svg width="7" height="7" viewBox="0 0 7 7" fill="none" xmlns="http://www.w3.org/2000/svg">
<path d="M4.62705 4.1981L6.19505 2.9591L4.20005 2.8751L3.50005 0.999098L2.80005 2.8751L0.80505 2.9591L2.37305 4.1981L1.83405 6.1231L3.50005 5.0171L5.16605 6.1231L4.62705 4.1981ZM3.50005 5.5841L1.82705 6.7041C1.68238 6.79743 1.56105 6.84176 1.46305 6.8371C1.36972 6.8371 1.30672 6.79043 1.27405 6.6971C1.24138 6.60377 1.24838 6.47543 1.29505 6.3121L1.83405 4.3731L0.25205 3.1271C0.116717 3.01976 0.0350503 2.91943 0.00705027 2.8261C-0.0209497 2.73276 0.00471694 2.65576 0.0840503 2.5951C0.163384 2.53443 0.289384 2.50176 0.46205 2.4971L2.47105 2.4131L3.17105 0.530098C3.23172 0.371431 3.30172 0.264098 3.38105 0.208098C3.46038 0.147431 3.53972 0.147431 3.61905 0.208098C3.69838 0.264098 3.76838 0.371431 3.82905 0.530098L4.52905 2.4131L6.54505 2.4971C6.71305 2.50176 6.83672 2.53443 6.91605 2.5951C6.99538 2.65576 7.02105 2.73276 6.99305 2.8261C6.96505 2.91943 6.88338 3.01976 6.74805 3.1271L5.16605 4.3731L5.71205 6.3121C5.75872 6.47543 5.76572 6.60377 5.73305 6.6971C5.70038 6.79043 5.63505 6.8371 5.53705 6.8371C5.43905 6.84176 5.31772 6.79743 5.17305 6.7041L3.50005 5.5841Z" fill="url(#paint0_linear_89_121)"/>
<defs>
<linearGradient id="paint0_linear_89_121" x1="3.51698" y1="0.162598" x2="3.45842" y2="6.83707" gradientUnits="userSpaceOnUse">
<stop stop-color="#0C4A4D"/>
<stop offset="1" stop-color="#083032"/>
</linearGradient>
</defs>
</svg>
