<svg width="7" height="7" viewBox="0 0 7 7" fill="none" xmlns="http://www.w3.org/2000/svg">
<path d="M4.62705 4.19808L6.19505 2.95908L4.20005 2.87508L3.50005 0.999083L2.80005 2.87508L0.80505 2.95908L2.37305 4.19808L1.83405 6.12308L3.50005 5.01708L5.16605 6.12308L4.62705 4.19808ZM3.50005 5.58408L1.82705 6.70408C1.68238 6.79742 1.56105 6.84175 1.46305 6.83708C1.36972 6.83708 1.30672 6.79042 1.27405 6.69708C1.24138 6.60375 1.24838 6.47542 1.29505 6.31208L1.83405 4.37308L0.25205 3.12708C0.116717 3.01975 0.0350503 2.91942 0.00705027 2.82608C-0.0209497 2.73275 0.00471694 2.65575 0.0840503 2.59508C0.163384 2.53442 0.289384 2.50175 0.46205 2.49708L2.47105 2.41308L3.17105 0.530082C3.23172 0.371416 3.30172 0.264083 3.38105 0.208082C3.46038 0.147416 3.53972 0.147416 3.61905 0.208082C3.69838 0.264083 3.76838 0.371416 3.82905 0.530082L4.52905 2.41308L6.54505 2.49708C6.71305 2.50175 6.83672 2.53442 6.91605 2.59508C6.99538 2.65575 7.02105 2.73275 6.99305 2.82608C6.96505 2.91942 6.88338 3.01975 6.74805 3.12708L5.16605 4.37308L5.71205 6.31208C5.75872 6.47542 5.76572 6.60375 5.73305 6.69708C5.70038 6.79042 5.63505 6.83708 5.53705 6.83708C5.43905 6.84175 5.31772 6.79742 5.17305 6.70408L3.50005 5.58408Z" fill="white"/>
</svg>
