<svg width="7" height="7" viewBox="0 0 7 7" fill="none" xmlns="http://www.w3.org/2000/svg">
<g clip-path="url(#clip0_104_666)">
<path d="M0.669266 3.28144H1.73786C1.7683 3.28144 1.79843 3.28744 1.82655 3.29908C1.85467 3.31073 1.88022 3.3278 1.90174 3.34932C1.92326 3.37084 1.94034 3.39639 1.95198 3.42451C1.96363 3.45263 1.96963 3.48277 1.96963 3.51321V6.24167C1.9696 6.30312 1.94517 6.36205 1.9017 6.40549C1.85824 6.44893 1.79931 6.47333 1.73786 6.47333H0.669375C0.638939 6.47335 0.608798 6.46736 0.580674 6.45573C0.552549 6.4441 0.526992 6.42704 0.50546 6.40553C0.483928 6.38401 0.466845 6.35847 0.455184 6.33036C0.443523 6.30225 0.437514 6.27211 0.4375 6.24167V3.5131C0.4375 3.45163 0.461918 3.39268 0.505383 3.34921C0.548847 3.30575 0.607798 3.28133 0.669266 3.28133V3.28144ZM6.38181 3.58725C6.85366 2.5051 5.08681 2.71794 4.69055 2.82557C4.29428 2.93199 4.34055 2.53583 4.34055 2.53583L4.57603 1.24739C4.59888 1.13644 4.59255 1.02146 4.55766 0.91369C4.44019 0.578128 4.12333 0.525518 3.93148 0.526503C3.88806 0.526761 3.84634 0.543433 3.81469 0.573172C3.78304 0.602912 3.76381 0.643519 3.76086 0.686846C3.75341 0.796147 3.75385 0.905843 3.76217 1.01508C3.76941 1.11761 3.75091 1.22033 3.70836 1.31389C3.50656 1.7643 3.08448 2.50214 2.88291 2.8481C2.81525 2.95999 2.73239 3.06195 2.6367 3.15107C2.51763 3.26865 2.41694 3.40349 2.338 3.55105C2.32153 3.58158 2.31302 3.61578 2.31328 3.65047V6.09172C2.31312 6.14424 2.33279 6.19488 2.36836 6.23351C2.40393 6.27214 2.45278 6.29592 2.50513 6.30008C3.10822 6.34985 4.96016 6.48897 5.54323 6.37478C6.24455 6.23752 6.16766 5.46052 6.16766 5.46052C6.31185 5.3523 6.41371 5.1971 6.45561 5.02175C6.49751 4.8464 6.47682 4.66192 6.39713 4.50021C6.77797 4.16552 6.38181 3.58725 6.38181 3.58725Z" fill="#3BD80C"/>
</g>
<defs>
<clipPath id="clip0_104_666">
<rect width="7" height="7" fill="white"/>
</clipPath>
</defs>
</svg>
