<svg width="7" height="7" viewBox="0 0 7 7" fill="none" xmlns="http://www.w3.org/2000/svg">
<g clip-path="url(#clip0_104_670)">
<path d="M0.669266 3.71856H1.73786C1.7683 3.71856 1.79843 3.71256 1.82655 3.70092C1.85467 3.68927 1.88022 3.6722 1.90174 3.65068C1.92326 3.62916 1.94034 3.60361 1.95198 3.57549C1.96363 3.54737 1.96963 3.51723 1.96963 3.48679V0.758325C1.9696 0.696876 1.94517 0.637954 1.9017 0.594513C1.85824 0.551072 1.79931 0.526669 1.73786 0.526669H0.669375C0.638939 0.526655 0.608798 0.532636 0.580674 0.54427C0.552549 0.555903 0.526992 0.572963 0.50546 0.594474C0.483928 0.615985 0.466845 0.641527 0.455184 0.669641C0.443523 0.697754 0.437514 0.72789 0.4375 0.758325V3.4869C0.4375 3.54837 0.461918 3.60732 0.505383 3.65079C0.548847 3.69425 0.607798 3.71867 0.669266 3.71867V3.71856ZM6.38181 3.41275C6.85366 4.4949 5.08681 4.28206 4.69055 4.17443C4.29428 4.06801 4.34055 4.46417 4.34055 4.46417L4.57603 5.75261C4.59888 5.86356 4.59255 5.97854 4.55766 6.08631C4.44019 6.42187 4.12333 6.47448 3.93148 6.4735C3.88806 6.47324 3.84634 6.45657 3.81469 6.42683C3.78304 6.39709 3.76381 6.35648 3.76086 6.31315C3.75341 6.20385 3.75385 6.09416 3.76217 5.98492C3.76941 5.88239 3.75091 5.77967 3.70836 5.68611C3.50656 5.2357 3.08448 4.49786 2.88291 4.1519C2.81525 4.04001 2.73239 3.93805 2.6367 3.84893C2.51763 3.73135 2.41694 3.59651 2.338 3.44895C2.32153 3.41842 2.31302 3.38422 2.31328 3.34953V0.908278C2.31312 0.855764 2.33279 0.805124 2.36836 0.766491C2.40393 0.727858 2.45278 0.704082 2.50513 0.699919C3.10822 0.650153 4.96016 0.511028 5.54323 0.625216C6.24455 0.762482 6.16766 1.53948 6.16766 1.53948C6.31185 1.6477 6.41371 1.8029 6.45561 1.97825C6.49751 2.1536 6.47682 2.33808 6.39713 2.49979C6.77797 2.83448 6.38181 3.41275 6.38181 3.41275Z" fill="#E43E3E"/>
</g>
<defs>
<clipPath id="clip0_104_670">
<rect width="7" height="7" fill="white" transform="matrix(1 0 0 -1 0 7)"/>
</clipPath>
</defs>
</svg>
